# xmcd
#
# Track frame offsets:
#	150
#	12668
#	25263
#	37613
#	49951
#	60591
#	72925
#	83818
#	97866
#	109458
#	121529
#	132554
#	144649
#	156116
#	170654
#	183040
#
# Disc length: 2563 seconds
#
# Revision: 0
# Processed by: cddbd v1.4PL0 Copyright (c) Steve Scherf et al.
# Submitted via: dBpowerAMP V4.0
#
DISCID=d20a0110
DTITLE=Slim Dusty - Land Of Lots Of Time
DYEAR=1997
DGENRE=Country
TTITLE0=Easy Goin' Drifter
TTITLE1=The Westerway Waltz
TTITLE2=The Land Of The Valley Mail
TTITLE3=Song Of The Macleary
TTITLE4=Keela Valley
TTITLE5=The Old Woolshed Do
TTITLE6=The Land Of Lots Of Time
TTITLE7=Old Bush Mates Of Mine
TTITLE8=Mad Jack's Cockatoo
TTITLE9=Cosy Inn
TTITLE10=Charley Gray's Barn Dance
TTITLE11=The Old Rocking Horse
TTITLE12=The Sying Stockman
TTITLE13=Bill
TTITLE14=The Black Velvet Band
TTITLE15=High wide and Handsome
EXTD=
EXTT0=
EXTT1=
EXTT2=
EXTT3=
EXTT4=
EXTT5=
EXTT6=
EXTT7=
EXTT8=
EXTT9=
EXTT10=
EXTT11=
EXTT12=
EXTT13=
EXTT14=
EXTT15=
PLAYORDER=
